<?xml version="1.0" standalone="no"?><!DOCTYPE svg PUBLIC "-//W3C//DTD SVG 1.1//EN" "http://www.w3.org/Graphics/SVG/1.1/DTD/svg11.dtd"><svg t="1582994234795" class="icon" viewBox="0 0 1024 1024" version="1.1" xmlns="http://www.w3.org/2000/svg" p-id="4710" xmlns:xlink="http://www.w3.org/1999/xlink" width="200" height="200"><defs><style type="text/css"></style></defs><path d="M512 512m-481.581176 0a481.581176 481.581176 0 1 0 963.162352 0 481.581176 481.581176 0 1 0-963.162352 0Z" fill="#A7D8D0" p-id="4711"></path><path d="M512 1024C229.690084 1024 0 794.309916 0 512S229.690084 0 512 0s512 229.690084 512 512-229.690084 512-512 512z m0-963.162353C263.228235 60.837647 60.837647 263.228235 60.837647 512S263.228235 963.162353 512 963.162353 963.162353 760.771765 963.162353 512 760.771765 60.837647 512 60.837647z" fill="#13A090" p-id="4712"></path><path d="M755.329076 131.807731c122.621849 82.888067 207.833277 210.371765 207.833277 380.192269 0 254.773782-201.465546 451.162353-456.239328 451.162353a522.756303 522.756303 0 0 1-63.354622-5.055462" fill="#75C2AF" p-id="4713"></path><path d="M311.481008 582.002017l-57.051428-21.168404a538.654118 538.654118 0 0 1 694.082689-318.623193L927.193277 299.175798a477.73042 477.73042 0 0 0-615.712269 282.826219z" fill="#13A090" p-id="4714"></path><path d="M576.408739 1020.213782L533.512605 977.102521c187.675966-186.836975 189.310924-492.402017 3.506555-681.153613l43.347899-42.681009a544.527059 544.527059 0 0 1-3.936807 766.945883z" fill="#13A090" p-id="4715"></path><path d="M542.117647 685.413109a535.663866 535.663866 0 0 1-222.160672-48.510924 537.556975 537.556975 0 0 1-282.718656-303.973109l57.008404-21.211429a477.214118 477.214118 0 0 0 250.987563 269.811092A472.997647 472.997647 0 0 0 710.281681 593.747899l21.512605 56.922353A536.717983 536.717983 0 0 1 542.117647 685.413109z" fill="#13A090" p-id="4716"></path><path d="M209.9965 200.676676m17.563753-12.422028l69.148492-48.905525q17.563752-12.422028 29.98578 5.141724l4.422242 6.252696q12.422028 17.563752-5.141724 29.98578l-69.148492 48.905525q-17.563752 12.422028-29.98578-5.141724l-4.422242-6.252696q-12.422028-17.563752 5.141724-29.98578Z" fill="#FFFFFF" p-id="4717"></path><path d="M362.465882 131.807731m-25.341848 0a25.341849 25.341849 0 1 0 50.683697 0 25.341849 25.341849 0 1 0-50.683697 0Z" fill="#FFFFFF" p-id="4718"></path></svg>