<?xml version="1.0" standalone="no"?><!DOCTYPE svg PUBLIC "-//W3C//DTD SVG 1.1//EN" "http://www.w3.org/Graphics/SVG/1.1/DTD/svg11.dtd"><svg t="1582994631956" class="icon" viewBox="0 0 1024 1024" version="1.1" xmlns="http://www.w3.org/2000/svg" p-id="2451" xmlns:xlink="http://www.w3.org/1999/xlink" width="200" height="200"><defs><style type="text/css"></style></defs><path d="M343.60888889 930.70222222h336.78222222c25.13464889 0 45.51111111 20.37646222 45.51111111 45.51111111s-20.37646222 45.51111111-45.51111111 45.51111112H343.60888889c-25.13464889 0-45.51111111-20.37646222-45.51111111-45.51111112s20.37646222-45.51111111 45.51111111-45.51111111zM512 3.41333333c225.60199111 0 408.46222222 183.14353778 408.46222222 409.03111112 0 134.62300445-65.50528 258.01500445-172.44728889 333.88202666L746.38222222 747.47107555 746.38222222 797.58222222c0 46.65685333-37.44426667 84.56874667-83.92248889 85.32195556L661.04888889 882.91555555H362.95111111c-47.12789333 0-85.33333333-38.20544-85.33333333-85.33333333l-0.00113778-50.11114667-1.63043555-1.14346666c-105.80536889-75.0592-171.05009778-196.63985778-172.42567112-329.59146667L103.53777778 412.44444445C103.53777778 186.55687111 286.39800889 3.41333333 512 3.41333333z m0 81.92c-180.32981333 0-326.54222222 146.43882667-326.54222222 327.11111112 0 114.60380445 59.26684445 218.93347555 154.73208889 278.23217777L359.53777778 702.69383111V797.58222222a3.41333333 3.41333333 0 0 0 3.41333333 3.41333333h298.09777778a3.41333333 3.41333333 0 0 0 3.41333333-3.41333333l0.00227556-94.88839111 19.34677333-12.01834666C779.27651555 631.37792 838.54222222 527.04824889 838.54222222 412.44444445 838.54222222 231.77216 692.32981333 85.33333333 512 85.33333333z" fill="#474747" p-id="2452"></path><path d="M352.84764445 315.16216889c-26.61034667 87.04-4.37475555 180.11022222 56.2176 245.68149333l1.8477511 1.97973333-66.19249777 62.47765334c-83.37863111-88.33365333-114.82908445-214.67022222-79.99260445-333.16408889l1.0752-3.58741333 87.04568889 26.61262222z" fill="#1B69FD" p-id="2453"></path></svg>