<?xml version="1.0" standalone="no"?><!DOCTYPE svg PUBLIC "-//W3C//DTD SVG 1.1//EN" "http://www.w3.org/Graphics/SVG/1.1/DTD/svg11.dtd"><svg t="1588153070625" class="icon" viewBox="0 0 1024 1024" version="1.1" xmlns="http://www.w3.org/2000/svg" p-id="1699" xmlns:xlink="http://www.w3.org/1999/xlink" width="200" height="200"><defs><style type="text/css"></style></defs><path d="M248.490667 645.29066667h129.080889c15.36 0 27.761778 4.380444 27.761777 20.48 0 16.213333-12.401778 19.342222-27.761777 19.342222H248.490667c-15.36 0-27.818667-3.128889-27.818667-19.342222 0-16.099556 12.458667-20.48 27.875556-20.48z m0-138.638222h206.506666c15.36 0 27.818667 1.820444 27.818667 17.976889 0 16.042667-12.458667 21.617778-27.818667 21.731555h-206.506666c-15.36 0-27.818667-5.575111-27.818667-21.731555 0-16.156444 12.458667-17.976889 27.875556-17.976889z m-80.896 262.371555c0 31.061333 7.281778 62.805333 36.864 62.805334h291.157333c15.36 0 23.893333 5.12 23.893333 21.276444 0 16.156444 0.512 29.923556-14.848 29.923556H204.458667c-60.302222-0.113778-90.567111-50.631111-90.680889-114.005334V229.66044467c0.113778-63.374222 30.321778-106.837333 90.680889-106.837334h608.369777c60.359111 0.113778 82.602667 43.463111 82.659556 106.837334 1.536 65.422222 1.536 114.460444 0 147.228444 0 1.251556-2.389333 3.185778-7.054222 5.802667H167.651556v386.332444zM845.425778 329.10222267V226.30399967c0-31.061333-5.802667-51.029333-35.441778-51.029333H220.842667c-13.937778-1.024-27.534222 3.811556-40.732445 14.563556-13.255111 10.808889-17.863111 57.173333-13.767111 139.264H845.368889z" p-id="1700"></path><path d="M701.44 899.69777767c-118.897778 0-216.177778-97.28-216.177778-216.177778 0-118.954667 97.28-216.291556 216.177778-216.291555s216.234667 97.28 216.234667 216.234666c0 118.897778-97.28 216.234667-216.177778 216.234667z m163.043556-146.375111a178.972444 178.972444 0 0 0 0-139.719111c-18.432-43.121778-59.278222-83.000889-102.172445-96.483556-42.837333-13.482667-86.016-11.207111-130.616889 7.68-43.235556 18.432-70.144 45.624889-88.576 88.803556a178.972444 178.972444 0 0 0 0 139.719111c18.432 43.178667 45.340444 69.688889 88.576 88.177778a188.416 188.416 0 0 0 143.36 0c44.600889-18.944 70.997333-44.999111 89.429334-88.177778z" p-id="1701"></path><path d="M670.549333 663.60888867h129.080889c15.36 0 27.761778 4.380444 27.761778 20.48 0 16.156444-12.401778 19.285333-27.761778 19.285334h-129.080889v-39.822223z" p-id="1702"></path><path d="M709.006222 571.05066667v131.754667h-38.456889v-131.754667c0-15.36 3.128889-26.851556 19.228445-26.851556 16.156444 0 19.228444 11.491556 19.228444 26.851556z" p-id="1703"></path></svg>