<?xml version="1.0" standalone="no"?><!DOCTYPE svg PUBLIC "-//W3C//DTD SVG 1.1//EN" "http://www.w3.org/Graphics/SVG/1.1/DTD/svg11.dtd"><svg t="1588153123273" class="icon" viewBox="0 0 1024 1024" version="1.1" xmlns="http://www.w3.org/2000/svg" p-id="2783" xmlns:xlink="http://www.w3.org/1999/xlink" width="200" height="200"><defs><style type="text/css"></style></defs><path d="M722.887111 639.43111067c49.265778 0 89.372444 40.163556 89.372445 89.429334 0 49.322667-40.106667 89.429333-89.372445 89.429333a89.486222 89.486222 0 0 1-89.372444-89.429333c0-49.265778 40.106667-89.372444 89.315555-89.372445z m0 46.08a43.406222 43.406222 0 1 0 0.113778 86.755556 43.406222 43.406222 0 0 0-0.113778-86.755556z" p-id="2784"></path><path d="M655.815111 501.53244467c10.808889 0 21.560889 4.437333 28.558222 11.889778 7.395556 7.68 27.136 23.665778 40.732445 23.665777 13.482667 0 33.052444-15.644444 40.391111-23.267555a39.936 39.936 0 0 1 43.235555-8.590222l59.164445 32.768c15.36 10.638222 20.707556 29.696 13.824 45.283555-1.251556 2.844444-4.437333 11.832889-4.437333 19.114667 0 27.875556 22.755556 50.631111 50.631111 50.631111h1.991111c14.620444 0 25.941333 11.377778 29.297778 29.127111 0.568889 2.730667 5.006222 27.249778 5.006222 46.990222 0 20.821333-4.949333 46.819556-5.006222 47.104-3.356444 17.635556-14.734222 29.070222-29.013334 29.070222h-2.275555c-27.875556 0-50.631111 22.755556-50.631111 50.631112 0 8.362667 3.982222 18.204444 4.494222 19.285333a36.636444 36.636444 0 0 1-12.515556 44.202667l-1.365333 0.910222-58.709333 32.426666a39.367111 39.367111 0 0 1-44.942223-8.760888c-7.452444-8.192-27.534222-25.201778-41.528889-25.201778-13.880889 0-34.190222 17.009778-41.358222 24.746666a39.253333 39.253333 0 0 1-43.52 9.102223l-58.026666-32.312889a37.148444 37.148444 0 0 1-13.710223-45.283556c1.137778-2.844444 4.380444-11.832889 4.380445-19.171555 0-27.875556-22.698667-50.574222-50.631111-50.574223h-1.991111c-14.563556 0-25.941333-11.434667-29.297778-29.127111a300.202667 300.202667 0 0 1-5.006222-47.047111c0-15.36 2.730667-33.564444 4.152888-42.211555l0.853334-4.778667c3.356444-17.692444 14.734222-29.127111 28.956444-29.127111h2.332445a50.631111 50.631111 0 0 0 50.631111-50.631111c0-8.362667-3.982222-18.204444-4.494222-19.285334a36.636444 36.636444 0 0 1 12.515555-44.259555l1.422222-0.910222 60.245334-33.052445 1.137777-0.455111a36.579556 36.579556 0 0 1 14.506667-2.901333z m-0.682667 47.672889l-43.690666 24.007111c2.389333 7.224889 5.12 17.92 5.12 29.184 0 48.924444-36.352 89.6-84.024889 95.857778a221.980444 221.980444 0 0 0-2.901333 30.890666c0 10.24 1.706667 23.04 2.901333 30.947556 47.672889 6.257778 84.024889 46.933333 84.024889 95.800889 0 11.320889-2.787556 22.072889-5.12 29.354666l40.448 22.641778c3.868444-3.697778 9.898667-9.102222 17.294222-14.620444 18.602667-13.653333 36.636444-20.536889 53.475556-20.536889 17.066667 0 35.214222 7.054222 53.930666 20.935111 7.509333 5.632 13.653333 11.207111 17.408 14.961778l42.382222-23.438223a96.028444 96.028444 0 0 1-5.12-29.297777c0-48.867556 36.295111-89.6 83.968-95.800889 1.251556-7.964444 2.958222-20.764444 2.958223-30.947556 0-10.069333-1.706667-22.869333-2.958223-30.890666a96.597333 96.597333 0 0 1-83.968-95.857778c0-11.264 2.730667-22.016 5.12-29.297778l-41.870222-23.267556a166.229333 166.229333 0 0 1-17.237333 13.994667c-18.204444 12.856889-35.84 19.342222-52.167111 19.342222-16.497778 0-34.247111-6.599111-52.622222-19.683555a168.106667 168.106667 0 0 1-17.351112-14.279111z" p-id="2785"></path><path d="M450.275556 48.35555567c127.829333 0 231.822222 103.310222 231.822222 230.229333 0 70.883556-32.426667 136.817778-88.974222 180.963556l-14.449778 11.320889c-29.582222 26.396444-86.186667 35.157333-123.562667 38.115555l-4.778667-0.170666c-10.638222 0-21.105778 0.568889-31.459555 1.536h-0.455111c-169.016889 16.042667-301.795556 157.866667-301.795556 329.955555v50.631111h370.517334c9.784889 21.219556 21.902222 41.073778 36.124444 59.278222H86.755556a29.752889 29.752889 0 0 1-29.866667-29.582222v-80.270222C56.888889 679.82222267 154.168889 537.42933367 304.867556 477.63911067l17.066666-6.826666-14.506666-11.264a228.522667 228.522667 0 0 1-88.974223-180.906667C218.453333 151.60888867 322.446222 48.35555567 450.275556 48.35555567z m0 59.221333c-94.890667 0-172.088889 76.743111-172.088889 171.008 0 94.321778 77.198222 171.008 172.088889 171.008s172.088889-76.686222 172.088888-171.008c0-94.264889-77.198222-171.008-172.088888-171.008z" p-id="2786"></path></svg>