<?xml version="1.0" standalone="no"?><!DOCTYPE svg PUBLIC "-//W3C//DTD SVG 1.1//EN" "http://www.w3.org/Graphics/SVG/1.1/DTD/svg11.dtd"><svg t="1588153103119" class="icon" viewBox="0 0 1024 1024" version="1.1" xmlns="http://www.w3.org/2000/svg" p-id="2303" xmlns:xlink="http://www.w3.org/1999/xlink" width="200" height="200"><defs><style type="text/css"></style></defs><path d="M774.88355601 284.72888901h-123.392c-13.653333 0-24.348444-9.272889-24.348445-21.048889s10.695111-21.048889 24.348445-21.048889h123.448888c13.653333 0 24.348444 9.272889 24.348445 21.048889s-10.752 21.048889-24.405333 21.048889z m0 79.530667h-123.392c-13.653333 0-24.348444-9.272889-24.348445-21.048889s10.695111-21.048889 24.348445-21.048889h123.448888c13.653333 0 24.348444 9.272889 24.348445 21.048889s-10.752 21.048889-24.405333 21.048889zM469.56088901 884.62222201H151.09688901C116.45155601 884.62222201 88.17777801 860.21688901 88.17777801 830.35022201V199.33866701C88.17777801 169.47200001 116.45155601 145.06666701 151.09688901 145.06666701h318.976c34.645333 0 62.919111 24.405333 62.919111 54.272v631.011555c-0.512 29.866667-28.785778 54.272-63.431111 54.272zM151.09688901 187.56266701c-7.793778 0-14.165333 5.461333-14.165333 12.174222v631.011555c0 6.769778 6.371556 12.231111 14.165333 12.231112h318.976c7.793778 0 14.165333-5.461333 14.165333-12.231112V199.73688901c0-6.712889-6.371556-12.174222-14.165333-12.174222H151.09688901z" p-id="2304"></path><path d="M881.20888901 884.62222201h-306.062222c-33.166222 0-60.302222-24.405333-60.302223-54.272V199.33866701c0-29.866667 27.136-54.272 60.302223-54.272h306.062222c33.166222 0 60.302222 24.405333 60.302222 54.272v631.011555c0 29.866667-27.136 54.272-60.302222 54.272zM575.71555601 187.56266701c-7.566222 0-13.653333 5.461333-13.653334 12.174222v631.011555c0 6.769778 6.087111 12.231111 13.653334 12.231112h305.891555c7.509333 0 13.596444-5.461333 13.596445-12.231112V199.73688901c0-6.712889-6.087111-12.174222-13.596445-12.174222H575.71555601z" p-id="2305"></path></svg>