<?xml version="1.0" standalone="no"?><!DOCTYPE svg PUBLIC "-//W3C//DTD SVG 1.1//EN" "http://www.w3.org/Graphics/SVG/1.1/DTD/svg11.dtd"><svg t="1588153097804" class="icon" viewBox="0 0 1024 1024" version="1.1" xmlns="http://www.w3.org/2000/svg" p-id="2183" xmlns:xlink="http://www.w3.org/1999/xlink" width="200" height="200"><defs><style type="text/css"></style></defs><path d="M499.598222 582.94044468a173.852444 173.852444 0 0 1-173.681778-173.681778H391.395556c0 59.676444 48.526222 108.202667 108.202666 108.202667a108.316444 108.316444 0 0 0 108.145778-108.202667h65.536a173.909333 173.909333 0 0 1-173.681778 173.681778z" p-id="2184"></path><path d="M499.598222 88.23466668c5.745778 0 11.605333 0.170667 17.464889 0.455111 169.358222 9.045333 304.583111 153.6 302.819556 323.242667a319.715556 319.715556 0 0 1-155.477334 271.018666c-19.114667 11.491556-25.656889 42.951111-5.575111 52.679112 58.595556 28.444444 118.328889 92.558222 117.532445 184.888888H222.776889c0-73.955556 63.260444-160.654222 117.589333-184.888888 20.366222-9.102222 13.653333-41.130667-5.461333-52.622223A319.715556 319.715556 0 0 1 179.2 408.57599968a320.284444 320.284444 0 0 1 320.284444-320.284444m0-65.536A386.275556 386.275556 0 0 0 113.777778 408.57599968c0 119.921778 54.044444 229.888 146.773333 302.648889-55.466667 49.095111-103.253333 130.787556-103.253333 209.351111v65.422223h684.032l0.568889-64.853334c0.796444-95.232-46.08-166.456889-101.831111-211.057778a382.577778 382.577778 0 0 0 145.294222-297.528888C887.466667 208.78222268 723.797333 34.13333368 520.533333 23.32444468A400.611556 400.611556 0 0 0 499.598222 22.75555568z" p-id="2185"></path></svg>