<?xml version="1.0" standalone="no"?><!DOCTYPE svg PUBLIC "-//W3C//DTD SVG 1.1//EN" "http://www.w3.org/Graphics/SVG/1.1/DTD/svg11.dtd"><svg t="1588153109006" class="icon" viewBox="0 0 1024 1024" version="1.1" xmlns="http://www.w3.org/2000/svg" p-id="2423" xmlns:xlink="http://www.w3.org/1999/xlink" width="200" height="200"><defs><style type="text/css"></style></defs><path d="M873.64266701 113.777778H156.04622201C118.55644401 113.777778 88.17777801 142.165333 88.17777801 177.152v524.913778c0 34.986667 30.378667 63.374222 67.868444 63.374222h717.596445c37.489778 0 67.868444-28.387556 67.868444-63.374222V177.152C941.51111101 142.165333 911.13244401 113.777778 873.64266701 113.777778z m9.671111 588.231111c-0.113778 5.006222-4.380444 8.988444-9.671111 9.102222H156.04622201c-5.290667-0.113778-9.557333-4.096-9.671111-9.102222V177.208889c0.113778-5.006222 4.380444-8.988444 9.671111-9.102222h717.596445c5.290667 0.113778 9.557333 4.096 9.671111 9.102222v524.913778z" p-id="2424"></path><path d="M260.89244401 456.078222a30.037333 30.037333 0 0 0-30.492444 29.582222v118.499556c0 16.327111 13.653333 29.582222 30.492444 29.582222a30.037333 30.037333 0 0 0 30.435556-29.582222V485.660444c0-16.327111-13.653333-29.582222-30.435556-29.582222z m142.222223-98.759111a30.037333 30.037333 0 0 0-30.492445 29.582222v217.258667c0 16.327111 13.653333 29.582222 30.492445 29.582222a30.037333 30.037333 0 0 0 30.435555-29.582222V386.958222c0-16.384-13.653333-29.639111-30.435555-29.639111z m142.222222-98.759111a30.037333 30.037333 0 0 0-30.492445 29.639111v315.960889c0 16.327111 13.653333 29.582222 30.492445 29.582222a30.037333 30.037333 0 0 0 30.435555-29.582222V288.199111c0-16.327111-13.653333-29.582222-30.435555-29.582222z m142.222222 197.518222a30.037333 30.037333 0 0 0-30.492444 29.582222v118.499556c0 16.327111 13.653333 29.582222 30.492444 29.582222a30.037333 30.037333 0 0 0 30.435556-29.582222V485.660444c0-16.327111-13.653333-29.582222-30.435556-29.582222z m82.773333 394.922667H222.77688901c-21.617778 0-39.082667 13.255111-39.082667 29.582222 0 16.384 17.464889 29.639111 39.082667 29.639111h547.555555c21.617778 0 39.139556-13.255111 39.139556-29.582222 0-16.384-17.521778-29.639111-39.139556-29.639111z" p-id="2425"></path></svg>