<?xml version="1.0" standalone="no"?><!DOCTYPE svg PUBLIC "-//W3C//DTD SVG 1.1//EN" "http://www.w3.org/Graphics/SVG/1.1/DTD/svg11.dtd"><svg t="1588153092279" class="icon" viewBox="0 0 1024 1024" version="1.1" xmlns="http://www.w3.org/2000/svg" p-id="2063" xmlns:xlink="http://www.w3.org/1999/xlink" width="200" height="200"><defs><style type="text/css"></style></defs><path d="M816.07111101 150.926222h-68.152889a26.055111 26.055111 0 0 0-26.510222 26.510222c0 15.075556 11.434667 26.567111 26.510222 26.567112h68.152889c38.001778 0 68.152889 26.510222 68.152889 58.368v535.096888c0 31.857778-31.004444 58.424889-68.152889 58.424889H209.35111101c-37.148444 0-68.152889-26.567111-68.152889-58.424889V262.371556c0-31.857778 31.004444-58.368 68.152889-58.368h77.767111a25.998222 25.998222 0 0 0 26.567111-26.567112 25.998222 25.998222 0 0 0-26.567111-26.510222H209.40800001C143.01866701 150.926222 88.17777801 201.329778 88.17777801 262.371556v535.096888c0 61.041778 54.897778 111.502222 121.173333 111.502223h606.833778c66.332444 0 121.173333-50.460444 121.173333-111.502223V262.371556c-0.113778-61.041778-54.954667-111.502222-121.287111-111.502223z" p-id="2064"></path><path d="M305.77777801 368.469333a26.453333 26.453333 0 0 0 37.148444-1.820444l143.246222-154.737778v363.52c0 15.075556 11.491556 26.567111 26.567112 26.567111a25.998222 25.998222 0 0 0 26.510222-26.567111v-373.191111l151.267555 164.522667a28.387556 28.387556 0 0 0 19.399111 8.817777 26.510222 26.510222 0 0 0 19.512889-44.259555L536.57600001 121.742222a27.761778 27.761778 0 0 0-38.912 0L304.92444401 331.320889a26.396444 26.396444 0 0 0 0.853334 37.148444zM344.74666701 687.786667a25.998222 25.998222 0 0 0-26.567111 26.510222c0 15.075556 11.491556 26.510222 26.510222 26.510222h336.156444a25.998222 25.998222 0 0 0 26.510222-26.510222 25.998222 25.998222 0 0 0-26.510222-26.567111H344.68977801z" p-id="2065"></path></svg>