<?xml version="1.0" standalone="no"?><!DOCTYPE svg PUBLIC "-//W3C//DTD SVG 1.1//EN" "http://www.w3.org/Graphics/SVG/1.1/DTD/svg11.dtd"><svg t="1588153086594" class="icon" viewBox="0 0 1024 1024" version="1.1" xmlns="http://www.w3.org/2000/svg" p-id="1943" xmlns:xlink="http://www.w3.org/1999/xlink" width="200" height="200"><defs><style type="text/css"></style></defs><path d="M628.62222266 703.31733367c0 15.36 12.401778 27.704889 27.761777 27.704889h251.448889a27.648 27.648 0 1 0 0-55.409778h-251.448889a27.648 27.648 0 0 0-27.704889 27.704889zM907.77599966 788.42311067h-251.448889a27.648 27.648 0 1 0 0 55.409778h251.448889a27.648 27.648 0 1 0 0-55.409778zM907.77599966 901.46133367h-251.448889a27.648 27.648 0 1 0 0 55.409777h251.448889a27.648 27.648 0 1 0 0-55.409777z" p-id="1944"></path><path d="M134.71288866 889.17333367c-4.323556-9.671111-5.575111-26.794667-5.176889-35.328v-0.512c3.811556-192.284444 164.864-348.728889 358.912-348.728889 102.627556 0 196.096 43.804444 261.916445 113.607111h72.988444a416.142222 416.142222 0 0 0-211.057778-150.471111 228.010667 228.010667 0 0 0 104.163556-191.317334A228.295111 228.295111 0 0 0 488.44799966 48.35555567a228.295111 228.295111 0 0 0-228.124444 228.067555c0 80.099556 41.585778 150.641778 104.163555 191.317334a412.785778 412.785778 0 0 0-166.343111 98.929778 407.893333 407.893333 0 0 0-124.131555 285.184c-0.113778 4.835556-0.739556 36.124444 10.126222 60.245333 16.099556 35.498667 56.035556 44.487111 76.8 44.145778l410.112 0.341333v-55.409778l-410.453333-0.341333c-0.170667 0-21.048889-0.853333-25.884445-11.662222zM315.79022266 276.47999967a172.828444 172.828444 0 0 1 172.657777-172.657777 172.828444 172.828444 0 0 1 172.600889 172.657777 172.828444 172.828444 0 0 1-172.600889 172.600889A172.828444 172.828444 0 0 1 315.73333366 276.47999967z" p-id="1945"></path></svg>