<?xml version="1.0" standalone="no"?><!DOCTYPE svg PUBLIC "-//W3C//DTD SVG 1.1//EN" "http://www.w3.org/Graphics/SVG/1.1/DTD/svg11.dtd"><svg t="1588153118515" class="icon" viewBox="0 0 1024 1024" version="1.1" xmlns="http://www.w3.org/2000/svg" p-id="2663" xmlns:xlink="http://www.w3.org/1999/xlink" width="200" height="200"><defs><style type="text/css"></style></defs><path d="M514.84444401 908.117333a26.168889 26.168889 0 0 1-20.252444-9.557333L369.20888901 749.226667H114.85866701A26.567111 26.567111 0 0 1 88.17777801 722.773333V140.231111C88.17777801 125.610667 100.12444401 113.777778 114.85866701 113.777778H914.77333301c14.791111 0 26.680889 11.832889 26.680889 26.453333v582.542222c0 14.620444-11.946667 26.453333-26.680889 26.453334H660.48000001l-125.326222 149.333333a26.168889 26.168889 0 0 1-20.252445 9.557333z m-373.361777-211.854222h240.071111a26.168889 26.168889 0 0 1 20.252444 9.557333L514.84444401 840.248889l113.095112-134.485333a26.168889 26.168889 0 0 1 20.252444-9.557334h240.014222V166.741333H141.53955601v529.521778z" p-id="2664"></path><path d="M754.85866701 378.538667H274.77333301a26.567111 26.567111 0 0 1-26.624-26.453334c0-14.620444 11.946667-26.510222 26.624-26.510222h480.028445c14.734222 0 26.680889 11.889778 26.680889 26.510222s-11.946667 26.453333-26.737778 26.453334z m0 158.890666H274.77333301a26.567111 26.567111 0 0 1-26.624-26.510222c0-14.620444 11.946667-26.453333 26.624-26.453333h480.028445c14.734222 0 26.680889 11.832889 26.680889 26.453333s-11.946667 26.510222-26.737778 26.510222z" p-id="2665"></path></svg>