<?xml version="1.0" standalone="no"?><!DOCTYPE svg PUBLIC "-//W3C//DTD SVG 1.1//EN" "http://www.w3.org/Graphics/SVG/1.1/DTD/svg11.dtd"><svg t="1588153113747" class="icon" viewBox="0 0 1024 1024" version="1.1" xmlns="http://www.w3.org/2000/svg" p-id="2543" xmlns:xlink="http://www.w3.org/1999/xlink" width="200" height="200"><defs><style type="text/css"></style></defs><path d="M758.49955599 79.64444468c49.265778 0 89.884444 42.496 93.809777 96.426666l0.284445 8.590223v241.095111l46.819555-22.926222a24.689778 24.689778 0 0 1 10.922667-2.616889c12.515556 0 22.926222 9.329778 25.031111 21.617777l0.455111 4.664889v427.690667c0.113778 40.846222-30.151111 74.524444-69.006222 78.392889l-7.395556 0.398222H158.89066699c-20.309333 0-39.822222-8.362667-54.101334-23.153778a79.416889 79.416889 0 0 1-21.845333-46.762666L82.48888899 854.18666668V426.15466668c0-14.506667 11.377778-26.225778 25.486222-26.282667 2.446222 0 4.892444 0.341333 7.281778 1.137778l3.413333 1.365333 46.990222 22.584889V184.66133368c0-55.011556 38.115556-100.295111 86.471112-104.675556L259.69777799 79.64444468h498.744889zM133.40444399 467.39911068v386.844445c0 14.449778 11.377778 26.168889 25.486223 26.225778h700.529777a25.884444 25.884444 0 0 0 25.486223-26.282667V468.08177768l-349.468445 171.690667-21.674666 10.638222-21.788445-10.467556-358.570667-172.544z m625.095112-335.246222H259.81155599c-23.950222 0-43.804444 20.081778-46.705778 45.909334l-0.341334 6.599111v262.940444l300.771556 144.725333 292.010667-143.416888V184.66133368c0-28.956444-21.048889-52.508444-47.047111-52.508445z" p-id="2544"></path><path d="M731.24977799 299.17866668H542.03733299a25.941333 25.941333 0 0 1-25.258666-26.282667c0-14.392889 11.207111-26.055111 25.258666-26.282666h189.212445a25.941333 25.941333 0 0 1 25.258666 26.282666 25.941333 25.941333 0 0 1-25.258666 26.282667zM731.24977799 408.57599968h-405.617778a25.941333 25.941333 0 0 1-25.6-26.282666c0-14.506667 11.434667-26.282667 25.6-26.282667h405.617778c14.165333 0 25.6 11.776 25.6 26.282667a25.941333 25.941333 0 0 1-25.6 26.282666z" p-id="2545"></path></svg>