<?xml version="1.0" standalone="no"?><!DOCTYPE svg PUBLIC "-//W3C//DTD SVG 1.1//EN" "http://www.w3.org/Graphics/SVG/1.1/DTD/svg11.dtd"><svg t="1588153081574" class="icon" viewBox="0 0 1024 1024" version="1.1" xmlns="http://www.w3.org/2000/svg" p-id="1821" xmlns:xlink="http://www.w3.org/1999/xlink" width="200" height="200"><defs><style type="text/css"></style></defs><path d="M294.968889 260.039111h438.613333a22.016 22.016 0 0 0 21.902222-21.902222 22.016 22.016 0 0 0-21.845333-21.959111H294.968889a22.016 22.016 0 0 0-21.902222 21.959111 21.845333 21.845333 0 0 0 21.902222 21.902222z m0 153.884445h307.086222a22.016 22.016 0 0 0 21.845333-21.902223 22.016 22.016 0 0 0-21.845333-21.959111H294.968889a22.016 22.016 0 0 0-21.902222 21.959111 21.845333 21.845333 0 0 0 21.902222 21.902223z" p-id="1822"></path><path d="M868.352 56.888889H155.704889A42.609778 42.609778 0 0 0 113.777778 99.896889v709.233778h0.568889c-5.973333 81.578667 57.287111 150.414222 135.566222 150.414222h199.281778c11.548444 0 20.878222-9.671111 20.878222-21.504a21.219556 21.219556 0 0 0-20.878222-21.447111H254.577778c-49.265778 0-93.297778-36.579556-98.247111-86.812445-5.688889-57.628444 38.798222-106.609778 93.809777-106.609777h199.054223c11.548444 0 20.878222-9.671111 20.878222-21.447112a21.219556 21.219556 0 0 0-20.878222-21.447111H255.146667c-37.831111 0-73.386667 15.189333-99.441778 40.391111V121.344c0-11.776 9.443556-21.447111 20.935111-21.447111h670.72c11.491556 0 20.935111 9.671111 20.935111 21.447111v408.348444H910.222222V99.896889A42.552889 42.552889 0 0 0 868.352 56.888889z" p-id="1823"></path><path d="M957.610667 740.579556l-79.075556-137.045334a69.063111 69.063111 0 0 0-59.847111-34.531555h-158.264889c-24.689778 0-47.445333 13.141333-59.790222 34.531555l-79.132445 137.045334a69.063111 69.063111 0 0 0 0 69.063111l79.075556 137.045333c12.401778 21.390222 35.157333 34.531556 59.847111 34.531556h158.264889c24.689778 0 47.445333-13.141333 59.790222-34.531556l79.132445-137.045333a69.063111 69.063111 0 0 0 0-69.063111z m-31.687111 50.801777l-79.075556 137.045334a32.483556 32.483556 0 0 1-28.16 16.213333h-158.264889a32.483556 32.483556 0 0 1-28.16-16.213333l-79.075555-137.102223a32.483556 32.483556 0 0 1 0-32.426666l79.075555-137.102222a32.483556 32.483556 0 0 1 28.16-16.213334h158.264889c11.605333 0 22.357333 6.200889 28.16 16.213334l79.075556 137.102222a32.483556 32.483556 0 0 1 0 32.426666z" p-id="1824"></path><path d="M740.067556 672.483556c-57.457778 0-104.106667 46.08-104.106667 103.139555 0 57.002667 46.648889 103.082667 104.106667 103.082667 57.457778 0 104.106667-46.08 104.106666-103.082667s-46.648889-103.139556-104.106666-103.139555z m0 40.675555c35.100444 0 63.488 27.989333 63.488 62.464 0 34.417778-28.387556 62.464-63.488 62.464a62.976 62.976 0 0 1-63.488-62.464c0-34.474667 28.387556-62.464 63.488-62.464z" p-id="1825"></path></svg>