<?xml version="1.0" standalone="no"?><!DOCTYPE svg PUBLIC "-//W3C//DTD SVG 1.1//EN" "http://www.w3.org/Graphics/SVG/1.1/DTD/svg11.dtd"><svg t="1584957700289" class="icon" viewBox="0 0 1024 1024" version="1.1" xmlns="http://www.w3.org/2000/svg" p-id="1510" xmlns:xlink="http://www.w3.org/1999/xlink" width="200" height="200"><defs><style type="text/css"></style></defs><path d="M686.535111 382.862222c0.227556-9.329778 7.964444-17.066667 17.294222-17.294222a16.042667 16.042667 0 0 1 16.497778 16.554667l-5.518222 247.466666a17.863111 17.863111 0 0 1-17.294222 17.294223l-254.520889 6.712888a16.042667 16.042667 0 0 1-16.497778-16.554666c0.170667-9.329778 7.907556-17.066667 17.237333-17.294222l213.674667-5.802667-270.222222-270.222222a16.952889 16.952889 0 0 1 0.568889-23.893334 16.952889 16.952889 0 0 1 23.893333-0.568889l270.222222 270.279112 4.664889-206.677334zM208.611556 208.611556v606.776888h606.776888V208.611556H208.611556zM815.388444 170.666667c20.992 0 37.944889 16.952889 37.944889 37.944889v606.776888a37.944889 37.944889 0 0 1-37.944889 37.944889H208.611556A37.944889 37.944889 0 0 1 170.666667 815.388444V208.611556C170.666667 187.619556 187.619556 170.666667 208.611556 170.666667h606.776888z" fill="#909399" p-id="1511"></path></svg>