<?xml version="1.0" standalone="no"?><!DOCTYPE svg PUBLIC "-//W3C//DTD SVG 1.1//EN" "http://www.w3.org/Graphics/SVG/1.1/DTD/svg11.dtd"><svg t="1582774798650" class="icon" viewBox="0 0 1024 1024" version="1.1" xmlns="http://www.w3.org/2000/svg" p-id="4659" xmlns:xlink="http://www.w3.org/1999/xlink" width="200" height="200"><defs><style type="text/css"></style></defs><path d="M174.253 801.632c-61.213 0-109.621-52.435-109.621-115.746 0-62.678 47.445-114.696 107.788-115.73l1.833-0.016h340.276v72H174.253c-20.106 0-37.621 18.971-37.621 43.746 0 24.527 17.166 43.366 37.019 43.74l0.602 0.006h677.543l-0.001 0.006 1.061 0.01c60.241 1.023 107.792 52.516 107.792 114.746s-47.55 113.722-107.792 114.746l-1.83 0.015H362.155v-72h488.873c20.214 0 37.62-18.622 37.62-42.761 0-23.898-17.06-42.389-37.015-42.756l-0.605-0.006H174.253z" fill="#1B69FD" p-id="4660"></path><path d="M948.572 146.356L807.453 61.563c-17.516-10.525-40.247-4.857-50.772 12.659L544.98 426.554a37 37 0 0 0-4.486 26.706l24.985 118.246 0.251 1.105c0.097 0.405 0.182 0.715 0.395 1.488 5.656 19.636 26.16 30.969 45.796 25.312l116.135-33.453a37 37 0 0 0 21.473-16.498l211.703-352.332c10.525-17.516 4.857-40.247-12.659-50.772z m-67.084 43.69L694.9 500.58l-66.756 19.23-14.36-67.97L800.37 141.305l81.117 48.74z" fill="#474747" p-id="4661"></path></svg>